<?xml version="1.0" encoding="UTF-8"?>
<svg version="1.1" xmlns="http://www.w3.org/2000/svg" width="512" height="512">
<path d="M0 0 C168.96 0 337.92 0 512 0 C512 168.96 512 337.92 512 512 C343.04 512 174.08 512 0 512 C0 343.04 0 174.08 0 0 Z " fill="#111144" transform="translate(0,0)"/>
<path d="M0 0 C4.95 0 9.9 0 15 0 C17.93618142 8.46311114 20.57317144 16.90572302 22.875 25.5625 C24.88514083 33.11389861 27.08114929 40.56948716 29.5 48 C32.24167501 56.4226368 34.66007776 64.89518808 36.94140625 73.453125 C38.16602384 78.0223971 39.44373915 82.52975279 41 87 C42.82460878 92.25040487 44.25955475 97.56934219 45.6875 102.9375 C48.06845182 111.86606934 50.72504353 120.68635 53.5 129.5 C56.43455982 138.82599838 59.19096948 148.16247787 61.69140625 157.61328125 C64.09005613 166.56561934 66.88968933 175.385428 69.67260742 184.22436523 C72.32802963 192.70516564 74.75871913 201.22128101 77.04296875 209.80859375 C78.47932665 215.18283174 80.10479784 220.43375382 81.9375 225.6875 C83.76358562 231.38059047 85.24217078 237.17127115 86.7890625 242.9453125 C88.06678551 247.68192206 89.38324153 252.36529238 91 257 C92.95111795 262.59320478 94.46793686 268.28134176 96 274 C98.08344816 281.77642463 100.36685143 289.39171975 103 297 C104.22892656 300.80548281 105 303.93907473 105 308 C95.76 308 86.52 308 77 308 C72.84766482 295.28876985 68.9871623 282.58825224 65.57177734 269.66064453 C63.41918982 261.51304581 61.14713286 253.4070609 58.77709961 245.32006836 C58.5425708 244.5131958 58.30804199 243.70632324 58.06640625 242.875 C57.7561853 241.81925781 57.7561853 241.81925781 57.43969727 240.7421875 C57 239 57 239 57 237 C24.66 237 -7.68 237 -41 237 C-41.66 240.3 -42.32 243.6 -43 247 C-43.85778221 250.04074497 -44.74362982 253.04971411 -45.6875 256.0625 C-48.10507152 263.95097992 -50.4059046 271.86587691 -52.625 279.8125 C-52.92059814 280.87098145 -53.21619629 281.92946289 -53.52075195 283.02001953 C-55.49830497 290.13210609 -57.42058642 297.25678327 -59.2734375 304.40234375 C-60 307 -60 307 -61 309 C-70.57 309 -80.14 309 -90 309 C-88.839896 304.35958401 -87.68539465 299.77354907 -86.37109375 295.18359375 C-85.90884399 293.56650513 -85.90884399 293.56650513 -85.43725586 291.91674805 C-85.10733643 290.76859619 -84.77741699 289.62044434 -84.4375 288.4375 C-84.08888916 287.22167236 -83.74027832 286.00584473 -83.38110352 284.75317383 C-82.44719937 281.49995345 -81.51169174 278.24720676 -80.57470703 274.99487305 C-80.19270791 273.66891093 -79.81087099 272.34290208 -79.42919922 271.0168457 C-74.91309435 255.32657391 -70.32492334 239.66253854 -65.54296875 224.05078125 C-61.96609233 212.36748364 -58.60126126 200.62468087 -55.25 188.875 C-49.50422447 168.7305683 -43.74878432 148.59069019 -37.59350586 128.56689453 C-34.22545562 117.55741658 -31.11649228 106.47386871 -27.96875 95.39990234 C-23.78504254 80.71686048 -19.43248619 66.0940485 -14.91455078 51.51049805 C-12.05681366 42.25584767 -9.36768355 32.96005311 -6.74414062 23.63671875 C-5.38382037 18.81668634 -4.00282657 14.00255113 -2.625 9.1875 C-2.11710534 7.41017973 -1.60928481 5.63283827 -1.1015625 3.85546875 C-0.73804688 2.58316406 -0.37453125 1.31085938 0 0 Z " fill="#FBFBFC" transform="translate(161,102)"/>
<path d="M0 0 C58.08 0 116.16 0 176 0 C176 8.91 176 17.82 176 27 C151.58 27 127.16 27 102 27 C102 120.06 102 213.12 102 309 C92.76 309 83.52 309 74 309 C74 215.94 74 122.88 74 27 C49.58 27 25.16 27 0 27 C0 18.09 0 9.18 0 0 Z " fill="#FAFAFB" transform="translate(266,102)"/>
<path d="M0 0 C2.25860797 2.25860797 2.51469161 3.33768834 3.26171875 6.3828125 C3.48980225 7.2900708 3.71788574 8.1973291 3.95288086 9.13208008 C4.19530518 10.11974365 4.43772949 11.10740723 4.6875 12.125 C6.77991196 20.40576088 9.00606263 28.62486787 11.4375 36.8125 C13.92191411 45.197312 16.26025556 53.60910929 18.5 62.0625 C20.67602395 70.26191371 22.98513503 78.39810595 25.5 86.5 C28.36862126 95.74297854 30.94967052 105.04227693 33.42993164 114.39648438 C35.58728953 122.52320679 37.85839471 130.61130932 40.22290039 138.68017578 C40.4574292 139.48696777 40.69195801 140.29375977 40.93359375 141.125 C41.2438147 142.18074219 41.2438147 142.18074219 41.56030273 143.2578125 C42 145 42 145 42 147 C14.94 147 -12.12 147 -40 147 C-38.72807227 140.64036136 -37.41706287 134.50646502 -35.64453125 128.30078125 C-35.42216293 127.51158295 -35.19979462 126.72238464 -34.97068787 125.90927124 C-34.25535075 123.37584458 -33.53417179 120.84412872 -32.8125 118.3125 C-32.31273734 116.54860897 -31.81306349 114.78469277 -31.31347656 113.02075195 C-28.45974445 102.97246075 -25.5053702 92.96225178 -22.41210938 82.98486328 C-20.07664879 75.3946164 -18.01482541 67.74379302 -15.98876953 60.06591797 C-14.05023593 52.77150215 -12.01510601 45.51032456 -9.92578125 38.2578125 C-9.65512344 37.31736588 -9.38446564 36.37691925 -9.10560608 35.40797424 C-7.7434812 30.67977332 -6.374976 25.95351373 -4.99926758 21.22924805 C-4.49155968 19.47188275 -3.98398548 17.71447883 -3.4765625 15.95703125 C-3.24145462 15.15697662 -3.00634674 14.356922 -2.76411438 13.53262329 C-1.46698347 9.02275387 -0.54741573 4.66232508 0 0 Z " fill="#121245" transform="translate(168,165)"/>
<path d="M0 0 C0.33 0 0.66 0 1 0 C1 13.53 1 27.06 1 41 C-12.53 41 -26.06 41 -40 41 C-36.77794772 39.38897386 -33.66489916 38.09649079 -30.3125 36.8125 C-16.32964928 30.99481758 -7.86955879 20.70813891 -2 7 C-1.17794005 4.65968578 -0.55034658 2.42152494 0 0 Z " fill="#000000" transform="translate(511,471)"/>
<path d="M0 0 C13.53 0 27.06 0 41 0 C41 13.53 41 27.06 41 41 C39.38897386 37.77794772 38.09649079 34.66489916 36.8125 31.3125 C30.99481758 17.32964928 20.70813891 8.86955879 7 3 C4.65968578 2.17794005 2.42152494 1.55034658 0 1 C0 0.67 0 0.34 0 0 Z " fill="#000000" transform="translate(471,0)"/>
<path d="M0 0 C13.53 0 27.06 0 41 0 C37.77794772 1.61102614 34.66489916 2.90350921 31.3125 4.1875 C17.32964928 10.00518242 8.86955879 20.29186109 3 34 C2.17794005 36.34031422 1.55034658 38.57847506 1 41 C0.67 41 0.34 41 0 41 C0 27.47 0 13.94 0 0 Z " fill="#000000" transform="translate(0,0)"/>
<path d="M0 0 C1.61857992 3.23715984 2.94284144 6.38624531 4.25 9.75 C6.52146149 15.21611931 9.11619238 19.55584203 13 24 C13.71542969 24.88945312 13.71542969 24.88945312 14.4453125 25.796875 C21.17431411 33.43885673 31.33603298 37.47306985 41 40 C41 40.33 41 40.66 41 41 C27.47 41 13.94 41 0 41 C0 27.47 0 13.94 0 0 Z " fill="#000000" transform="translate(0,471)"/>
</svg>
